<svg xmlns="http://www.w3.org/2000/svg" xmlns:xlink="http://www.w3.org/1999/xlink" width="500" zoomAndPan="magnify" viewBox="0 0 375 374.999991" height="500" preserveAspectRatio="xMidYMid meet" version="1.0"><defs><clipPath id="ee1df31c50"><path d="M 9 3.371094 L 365 3.371094 L 365 371.621094 L 9 371.621094 Z M 9 3.371094 " clip-rule="nonzero"/></clipPath></defs><g clip-path="url(#ee1df31c50)"><path fill="#ffde59" d="M 358.734375 342.085938 L 270.507812 257.324219 C 296.714844 229.289062 311.074219 192.929688 311.074219 154.355469 C 311.074219 115.785156 295.351562 76.121094 266.851562 47.59375 C 238.324219 19.070312 200.40625 3.371094 160.089844 3.371094 C 119.769531 3.371094 81.851562 19.070312 53.324219 47.59375 C 24.800781 76.121094 9.101562 114.039062 9.101562 154.355469 C 9.101562 194.675781 24.800781 232.59375 53.324219 261.121094 C 81.851562 289.644531 119.769531 305.34375 160.089844 305.34375 C 190.5 305.34375 219.515625 296.417969 244.195312 279.792969 L 334.878906 366.898438 C 338.097656 369.984375 342.328125 371.703125 346.808594 371.703125 C 351.285156 371.703125 356.007812 369.765625 359.226562 366.40625 C 365.804688 359.554688 365.585938 348.636719 358.734375 342.058594 Z M 226.421875 253.476562 C 207.449219 266.195312 184.65625 273.621094 160.089844 273.621094 C 94.21875 273.621094 40.851562 220.226562 40.851562 154.382812 C 40.851562 88.542969 94.21875 35.121094 160.089844 35.121094 C 225.957031 35.121094 279.324219 88.515625 279.324219 154.355469 C 279.324219 187.003906 266.195312 216.597656 244.929688 238.136719 C 239.308594 243.839844 233.082031 249 226.394531 253.476562 Z M 226.421875 253.476562 " fill-opacity="1" fill-rule="nonzero"/></g></svg>